<svg width="27" height="33" viewBox="0 0 27 33" fill="none" xmlns="http://www.w3.org/2000/svg">
<g clip-path="url(#clip0_68_541)">
<mask id="mask0_68_541" style="mask-type:luminance" maskUnits="userSpaceOnUse" x="0" y="0" width="27" height="33">
<path d="M27 0H0V33H27V0Z" fill="white"/>
</mask>
<g mask="url(#mask0_68_541)">
<mask id="mask1_68_541" style="mask-type:luminance" maskUnits="userSpaceOnUse" x="0" y="0" width="27" height="33">
<path d="M27 0.5H0V32.5H27V0.5Z" fill="white"/>
</mask>
<g mask="url(#mask1_68_541)">
<mask id="mask2_68_541" style="mask-type:luminance" maskUnits="userSpaceOnUse" x="0" y="0" width="27" height="33">
<path d="M27 0.5H0V32.5H27V0.5Z" fill="white"/>
</mask>
<g mask="url(#mask2_68_541)">
<path d="M17.9309 25.3997C16.4499 27.7797 14.9769 30.1361 13.5039 32.5004C13.3526 32.4058 13.2968 32.2482 13.2172 32.1142C11.8875 29.9785 10.5498 27.8349 9.2281 25.6913C9.07682 25.447 8.99719 25.4076 8.76629 25.6282C8.01783 26.3533 7.23752 27.0468 6.48906 27.7718C6.27408 27.9768 6.20242 27.9216 6.06706 27.7088C5.30268 26.4715 4.52237 25.2342 3.76595 23.9969C3.63059 23.7762 3.55097 23.7526 3.34395 23.9259C2.38847 24.714 1.4091 25.4785 0.4377 26.2508C0.318265 26.3454 0.214755 26.4794 0.0555085 26.5109C-0.0718886 26.4084 0.0555092 26.3375 0.0873585 26.2745C1.43299 23.5949 2.18145 20.7499 2.40439 17.7709C2.54771 15.9189 2.5079 14.0748 2.49198 12.2227C2.46809 10.221 2.89806 8.32954 3.86946 6.56421C3.90131 6.50904 3.90131 6.43024 4.02074 6.41447C4.53829 7.08435 5.06381 7.77 5.67691 8.38471C5.84412 8.55021 5.69283 8.68419 5.62913 8.8024C5.17528 9.70083 4.99215 10.6308 5.31064 11.6159C5.75653 13.0029 7.20567 14.0275 8.81406 14.0511C9.24403 14.059 9.2918 14.2087 9.21218 14.5476C9.17237 14.7131 9.14052 14.8944 9.1644 15.052C9.23606 15.5249 9.02108 15.7692 8.60704 15.9898C7.60379 16.5179 6.64035 17.101 5.60524 17.6921C6.31389 18.0862 6.95088 18.496 7.63564 18.8112C8.98923 19.4259 9.8412 20.482 10.4861 21.7587C11.4735 23.721 12.1025 25.8095 12.7315 27.9058C12.9465 28.623 13.1535 29.3323 13.3685 30.0494C13.4004 30.1519 13.4083 30.2543 13.5118 30.3332C14.1329 28.3472 14.6504 26.3296 15.3671 24.3752C15.9165 22.8857 16.5057 21.4198 17.5089 20.151C17.8274 19.749 18.2096 19.4417 18.6555 19.1974C19.5393 18.7088 20.4231 18.2123 21.3547 17.7C20.877 17.4242 20.439 17.1641 19.9932 16.9119C19.6986 16.7385 19.396 16.5809 19.1014 16.4075C18.6794 16.1632 18.13 15.9977 17.8911 15.6352C17.6602 15.2805 17.7876 14.721 17.7239 14.2481C17.6841 13.9487 17.8991 14.0748 18.0026 14.0748C18.8705 14.059 19.6747 13.8147 20.3833 13.3182C21.8086 12.3252 22.2226 10.6465 21.4343 9.03095C21.2353 8.62902 21.2592 8.38471 21.5856 8.06947C22.1111 7.56509 22.5252 6.97402 22.987 6.36719C23.6319 7.47052 24.046 8.61326 24.2848 9.82693C24.4441 10.6308 24.4521 11.4425 24.46 12.2543C24.46 14.2087 24.4122 16.1632 24.5954 18.1177C24.8581 20.9863 25.6066 23.721 26.9045 26.306C26.9363 26.3769 26.9681 26.4478 27 26.5188C27 26.5267 26.992 26.5424 26.9761 26.5976C25.7738 25.644 24.5874 24.6983 23.3771 23.7289C22.5809 25.0056 21.8006 26.2587 21.0203 27.5197C20.7337 27.9768 20.7337 27.9846 20.3355 27.6142C19.5313 26.8971 18.7431 26.1563 17.9309 25.3997Z" fill="white"/>
<path d="M23.9035 2.18199C23.8159 2.64696 23.6248 2.97796 23.4337 3.30108C22.4305 5.06641 21.0291 6.48499 19.4765 7.77746C18.2821 8.77834 17.0002 9.66101 15.6068 10.3624C15.4157 10.457 15.2723 10.4727 15.0812 10.3467C14.0143 9.68465 12.9394 9.68465 11.8724 10.3467C11.7211 10.4412 11.5938 10.4964 11.4027 10.3939C8.20977 8.67589 5.47073 6.46134 3.55181 3.35625C3.36071 3.04889 3.1935 2.72577 3.08203 2.34749C3.2572 2.32385 3.29701 2.45782 3.36868 2.52875C3.87826 3.04101 4.42766 3.46658 5.12835 3.70301C5.42295 3.79758 5.63794 3.75818 5.87681 3.53751C7.52501 1.94556 9.49966 0.95256 11.7769 0.629441C15.2405 0.140823 18.306 1.03137 20.9097 3.37201C21.4113 3.82123 21.5387 3.86063 22.1598 3.57692C22.8365 3.27744 23.3621 2.78882 23.9035 2.18199Z" fill="white"/>
<path d="M13.4866 24.6041C13.3034 24.0367 13.1442 23.5402 12.977 23.0516C12.4833 21.5857 11.918 20.1514 10.8431 18.9771C10.3892 18.4806 9.8637 18.0629 9.21875 17.6846C9.66464 17.4325 10.0707 17.1803 10.4927 16.9596C10.8112 16.7941 10.9386 16.5577 10.9306 16.203C10.8988 15.2573 10.9545 14.3195 11.3128 13.421C11.5517 12.8221 11.9419 12.3335 12.4674 11.9552C13.1123 11.4902 13.8449 11.4902 14.4898 11.9473C15.501 12.6724 15.8991 13.7126 16.0026 14.8869C16.0425 15.3282 16.0425 15.7775 16.0265 16.2188C16.0186 16.5577 16.1539 16.7862 16.4565 16.9438C16.8705 17.1645 17.2846 17.4088 17.7544 17.6768C15.0631 19.2135 14.3624 21.9167 13.4866 24.6041Z" fill="white"/>
<path d="M10.646 11.9015C9.73828 12.5005 8.36876 12.4689 7.55661 11.8542C6.89573 11.3498 6.75241 10.609 7.18238 9.75C8.26525 10.5617 9.40387 11.279 10.646 11.9015Z" fill="white"/>
<path d="M16.2812 11.9135C17.5395 11.283 18.6938 10.5658 19.7687 9.73828C20.2624 10.6525 20.0395 11.5194 19.1556 11.9923C18.2081 12.5045 17.2606 12.4179 16.2812 11.9135Z" fill="white"/>
</g>
</g>
</g>
</g>
<defs>
<clipPath id="clip0_68_541">
<rect width="27" height="33" fill="white"/>
</clipPath>
</defs>
</svg>
